PathFileType	4	(X/Y/Z)	D:\TRACE\v60_Jaco2_6-2-23\JustBodyDRS_Motion1_4-platform.trc
DataRate	CameraRate	NumFrames	NumMarkers	Units	OrigDataRate	OrigDataStartFrame	OrigNumFrames
100.00	100.00	      36	5	mm	100.00	1740	      6956
Frame#	Time	Left_Front			Right_Front			Left_Aft			Right_Aft			Post			
		X1	Y1	Z1	X2	Y2	Z2	X3	Y3	Z3	X4	Y4	Z4	X5	Y5	Z5	

1740	17.390	-833.27582	30.09679	-633.34674	736.53943	30.79206	-638.54358	-741.68475	-6.48313	501.12524	700.58380	-8.25267	511.10358	-46.55906	1338.29492	-915.02869	
1741	17.400	-834.36993	29.79210	-633.57623	735.78662	30.68112	-638.62848	-742.35413	-6.41280	501.09656	700.17236	-8.20032	511.06198	-47.77602	1337.98584	-915.28857	
1742	17.410	-835.39197	29.39059	-633.72583	735.11212	30.27359	-638.71271	-743.03802	-6.31462	501.05295	699.29840	-7.90383	510.93976	-48.30209	1337.68188	-915.74915	
1743	17.420	-835.91998	29.15090	-633.71948	734.13263	29.87281	-638.85736	-743.96075	-5.92590	501.05804	698.26599	-7.88910	510.82336	-49.24242	1337.33667	-916.45776	
1744	17.430	-836.33051	28.65034	-633.53571	733.23639	29.65474	-638.87054	-744.85760	-6.10452	501.14984	697.79755	-7.70656	510.66861	-49.66543	1336.76807	-917.17188	
1745	17.440	-837.27136	28.38080	-633.51569	732.69122	29.54228	-638.95380	-745.51727	-5.54644	501.03348	697.08752	-7.32462	510.67746	-50.66608	1336.44177	-917.92761	
1746	17.450	-838.33203	28.19306	-633.64972	731.99890	29.36911	-638.91589	-746.23523	-5.25927	501.00238	695.93451	-7.24375	510.73743	-51.20568	1336.12256	-919.16425	
1747	17.460	-839.10181	28.07922	-633.88892	731.01941	28.96605	-639.16754	-746.97705	-5.28378	500.92096	695.36444	-7.09043	510.53174	-52.04881	1335.80212	-920.27142	
1748	17.470	-839.42328	27.71914	-633.65808	730.37225	28.55924	-639.18811	-747.72089	-5.17987	500.83551	695.37823	-6.25475	510.36951	-52.66740	1335.19788	-920.97327	
1749	17.480	-840.27600	27.27408	-633.77600	729.88904	28.25911	-639.05811	-748.24512	-5.02717	500.78146	693.86060	-6.78520	510.52563	-53.39596	1334.75940	-921.27911	
1750	17.490	-840.65967	27.06008	-633.82886	729.20300	28.04661	-639.16235	-749.05951	-4.79353	500.59702	693.31793	-6.61745	510.49390	-54.01740	1334.47083	-921.77112	
1751	17.500	-841.47461	27.00592	-634.20544	728.45313	27.81390	-639.25494	-749.82141	-4.46785	500.56415	692.44934	-6.15171	510.54889	-54.52870	1334.07458	-922.23175	
1752	17.510	-842.48419	26.86019	-634.13123	727.68402	27.56917	-639.38135	-750.42279	-4.08769	500.55853	692.11420	-5.95769	510.55054	-55.33772	1333.65979	-922.39282	
1753	17.520	-843.19843	26.49386	-634.27820	727.06622	27.17966	-639.58044	-750.84430	-3.92189	500.53650	691.58881	-5.91583	510.47043	-56.29124	1333.25305	-922.77856	
1754	17.530	-843.49921	26.08427	-634.29565	726.57477	26.96238	-639.51044	-751.53198	-4.01855	500.50430	690.23767	-5.90870	510.36966	-56.73844	1332.86353	-923.18140	
1755	17.540	-843.81989	25.85518	-634.40594	726.05023	26.69562	-639.54248	-752.17621	-3.90661	500.45236	689.61029	-6.01899	510.31729	-57.30380	1332.38037	-923.71924	
1756	17.550	-844.42236	25.35063	-634.44446	725.35333	26.28280	-639.76160	-752.84521	-3.57630	500.32745	689.12164	-5.76546	509.45807	-57.89508	1331.94897	-924.45172	
1757	17.560	-845.09485	25.14564	-634.46100	724.78076	26.00836	-639.89642	-753.37140	-3.17149	500.23596	687.91400	-5.87391	509.02899	-58.19760	1331.49744	-925.57629	
1758	17.570	-845.70624	24.97126	-634.59198	724.12817	25.65567	-639.91077	-753.73071	-2.84757	500.27469	687.46973	-5.69771	508.69156	-58.56007	1331.04370	-926.21002	
1759	17.580	-846.20667	24.51655	-634.61047	723.78552	25.30062	-639.91199	-754.25610	-2.61493	500.24734	687.86841	-4.59418	509.39917	-59.94887	1330.71448	-927.37463	
1760	17.590	-846.99951	23.88870	-634.72742	723.54523	25.07409	-640.04395	-754.89532	-2.52874	500.22592	687.25195	-4.36027	509.27930	-59.59898	1329.97327	-928.39868	
1761	17.600	-847.36261	23.56317	-634.96191	722.85095	24.56703	-640.21991	-755.33521	-2.41059	500.12402	687.01428	-3.86300	509.21652	-60.58511	1329.56775	-929.22540	
1762	17.610	-847.60907	23.43592	-635.06085	722.26447	24.09969	-640.37677	-755.78540	-2.14015	500.03723	686.49341	-3.67863	509.10080	-61.16686	1329.25818	-929.97925	
1763	17.620	-847.99042	23.18244	-635.12122	721.91797	23.91339	-640.23529	-756.12067	-1.83068	499.96384	685.67010	-3.72851	509.02176	-61.24080	1328.89209	-930.47156	
1764	17.630	-848.29926	22.87530	-635.00024	721.37531	23.73251	-640.39545	-756.36877	-1.53398	499.88464	685.25952	-3.39822	508.92920	-61.81793	1328.11121	-931.60614	
1765	17.640	-848.58856	22.51555	-634.97205	721.03577	23.42193	-640.47784	-756.75684	-1.20074	499.78430	685.22321	-3.08850	508.83673	-61.87642	1327.57336	-931.94672	
1766	17.650	-848.90479	22.16268	-635.23749	720.80804	22.61867	-640.69470	-757.13904	-1.04888	499.79089	684.98145	-2.80882	508.86118	-62.19020	1327.18896	-932.34503	
1767	17.660	-849.13757	21.65889	-635.56055	720.45422	22.04793	-640.75519	-757.48553	-0.95568	499.78644	684.74384	-2.51577	508.75269	-62.50596	1326.51733	-932.63635	
1768	17.670	-849.52319	21.33520	-635.67285	720.23047	22.03745	-640.77466	-757.79333	-0.52628	499.66342	684.54224	-1.92952	508.64206	-63.08097	1325.93250	-933.62964	
1769	17.680	-849.94690	20.99155	-635.56238	719.97070	21.67300	-640.97473	-758.04742	-0.18638	499.49921	684.51855	-1.68838	508.57578	-62.95568	1325.62671	-934.56409	
1770	17.690	-850.24677	20.56679	-635.45947	720.05347	21.36299	-640.92560	-758.48511	0.42100	499.05536	684.16943	-1.62869	508.51288	-63.47399	1325.00159	-935.52429	
1771	17.700	-850.44659	20.16432	-635.68359	719.97559	20.92943	-641.00403	-758.36621	0.17866	499.29959	683.75171	-1.40990	508.32553	-63.55110	1324.27539	-937.04865	
1772	17.710	-850.59644	19.75829	-635.91711	719.65820	20.48395	-641.19781	-758.70300	0.57514	499.13553	683.94867	-0.68531	508.39258	-63.69048	1323.58167	-938.06409	
1773	17.720	-850.75092	19.42387	-636.16022	719.36389	19.94483	-641.42365	-758.80420	0.68457	499.07971	683.30542	-0.71619	508.27237	-63.60025	1323.19446	-939.43536	
1774	17.730	-850.98962	19.17263	-636.11536	719.31195	19.64501	-641.45294	-758.42169	0.29890	499.45593	683.14935	-0.55372	508.06888	-63.94662	1322.70374	-940.40613	
1775	17.740	-851.10791	18.74099	-636.12048	719.21643	19.34505	-641.55212	-758.79309	1.16699	499.04343	683.23242	-0.25116	507.90771	-63.84540	1322.04919	-941.02130	
